<?xml version="1.0" encoding="UTF-8" standalone="no"?>
<!DOCTYPE svg PUBLIC "-//W3C//DTD SVG 1.1//EN"
"http://www.w3.org/Graphics/SVG/1.1/DTD/svg11.dtd">


<!-- Page 1 -->
<svg x="0" y="0" width="5280" height="3969" viewBox="0 0 5280 3969" version="1.1" xmlns="http://www.w3.org/2000/svg" xmlns:xlink="http://www.w3.org/1999/xlink"
style="display: block;margin-left: auto;margin-right: auto;">
<defs>
<clipPath id="c0_1"><path d="M0,3969.2V0H5280V3969.2Z" /></clipPath>

<style type="text/css"><![CDATA[
text { white-space: pre; }
path, image { pointer-events: none; }
text::-moz-selection {
	color: transparent;
	background: rgba(0, 106, 173, 0.4);
}
text::selection {
	color: transparent;
	background: rgba(0, 106, 173, 0.4);
}

.s1_1{
font-size: 458.33px;
font-family: TrebuchetMS_8;
fill: TRANSPARENT;
}
.s2_1{
font-size: 177.22px;
font-family: TrebuchetMS_8;
fill: TRANSPARENT;
}
.s3_1{
font-size: 174.17px;
font-family: TrebuchetMS_8;
fill: TRANSPARENT;
}
.s4_1{
font-size: 149.72px;
font-family: TrebuchetMS-Bold_9;
fill: TRANSPARENT;
}
.s5_1{
font-size: 446.11px;
font-family: TrebuchetMS-Bold_9;
fill: TRANSPARENT;
}
.s6_1{
font-size: 236.81px;
font-family: TrebuchetMS_8;
fill: TRANSPARENT;
}

.g0_1{
fill: #FFFFFF;
}
.g1_1{
}
.g2_1{
fill: #129712;
}
.g3_1{
fill: #14FD14;
}
.g4_1{
fill: #FFEB00;
}
.g5_1{
fill: #FF0707;
}
.g6_1{
fill: #EFEF78;
}
.g7_1{
fill: #CE8D51;
}
.g8_1{
fill: none;
stroke: #000000;
stroke-width: 38.01527;
stroke-linecap: round;
stroke-linejoin: round;
}

]]></style>

</defs>
<path d="M0,0
L0,3969
L5280,3969
L5280,0 Z " 
fill="#FFFFFF" stroke="none" />
<path d="M0,3969.2H5280V0H0V3969.2Z" class="g0_1" />
<path d="M0,0H5280V3969.2H0Z" class="g0_1" />
<g clip-path="url(#c0_1)">
<g fill="#D60005" >
<use xlink:href="#f0_8" transform="matrix(300,0,0,300,1641.5,637)" />
<use xlink:href="#f0_b" transform="matrix(300,0,0,300,1875.6,637)" />
<use xlink:href="#f0_q" transform="matrix(300,0,0,300,2116.6,637)" />
<use xlink:href="#f0_b" transform="matrix(300,0,0,300,2294.7,637)" />
<use xlink:href="#f0_j" transform="matrix(300,0,0,300,2535.7,637)" />
<use xlink:href="#f0_b" transform="matrix(300,0,0,300,2767,637)" />
<use xlink:href="#f0_k" transform="matrix(300,0,0,300,3007.9,637)" />
<use xlink:href="#f0_e" transform="matrix(300,0,0,300,3143,637)" />
<use xlink:href="#f0_n" transform="matrix(300,0,0,300,3393.1,637)" />
</g>
<g fill="#000000" >
<use xlink:href="#f0_n" transform="matrix(116,0,0,116,598.7,1131.5)" />
</g>
</g>
<text x="1641" y="636" dx="0,-21.7,0.3,-0.1,0.3,0.3,0.3,-0.1,0.3" class="s1_1">Parakaleo</text>
<g clip-path="url(#c0_1)">
<g fill="#000000" >
<use xlink:href="#f0_u" transform="matrix(116,0,0,116,693.8,1131.5)" />
<use xlink:href="#f0_e" transform="matrix(116,0,0,116,780.6,1131.5)" />
<use xlink:href="#f0_q" transform="matrix(116,0,0,116,877.2,1131.5)" />
<use xlink:href="#f0_f" transform="matrix(116,0,0,116,999.5,1131.5)" />
<use xlink:href="#f0_n" transform="matrix(116,0,0,116,1065,1131.5)" />
<use xlink:href="#f0_q" transform="matrix(116,0,0,116,1160.1,1131.5)" />
<use xlink:href="#f0_s" transform="matrix(116,0,0,116,1229,1131.5)" />
<use xlink:href="#f0_w" transform="matrix(116,0,0,116,1299.3,1131.5)" />
<use xlink:href="#f0_w" transform="matrix(116,0,0,116,1440.1,1131.5)" />
<use xlink:href="#f0_e" transform="matrix(116,0,0,116,1527.5,1131.5)" />
<use xlink:href="#f0_b" transform="matrix(116,0,0,116,1624.1,1131.5)" />
<use xlink:href="#f0_q" transform="matrix(116,0,0,116,1717.3,1131.5)" />
<use xlink:href="#f0_r" transform="matrix(116,0,0,116,1786.1,1131.5)" />
<use xlink:href="#f0_n" transform="matrix(116,0,0,116,1911.3,1131.5)" />
<use xlink:href="#f0_f" transform="matrix(116,0,0,116,2006.4,1131.5)" />
<use xlink:href="#f0_l" transform="matrix(116,0,0,116,2125.3,1131.5)" />
<use xlink:href="#f0_i" transform="matrix(116,0,0,116,2272.4,1131.5)" />
<use xlink:href="#f0_m" transform="matrix(116,0,0,116,2322.9,1131.5)" />
<use xlink:href="#f0_i" transform="matrix(116,0,0,116,2419.8,1131.5)" />
<use xlink:href="#f0_r" transform="matrix(116,0,0,116,2470.3,1131.5)" />
<use xlink:href="#f0_s" transform="matrix(116,0,0,116,2542.1,1131.5)" />
<use xlink:href="#f0_q" transform="matrix(116,0,0,116,2612.3,1131.5)" />
<use xlink:href="#f0_w" transform="matrix(116,0,0,116,2681.2,1131.5)" />
<use xlink:href="#f0_b" transform="matrix(116,0,0,116,2822,1131.5)" />
<use xlink:href="#f0_s" transform="matrix(116,0,0,116,2915.1,1131.5)" />
<use xlink:href="#f0_9" transform="matrix(116,0,0,116,3038.8,1131.5)" />
<use xlink:href="#f0_s" transform="matrix(116,0,0,116,3124,1131.5)" />
<use xlink:href="#f0_b" transform="matrix(116,0,0,116,3194.3,1131.5)" />
<use xlink:href="#f0_m" transform="matrix(116,0,0,116,3287.4,1131.5)" />
<use xlink:href="#f0_f" transform="matrix(116,0,0,116,3384.2,1131.5)" />
<use xlink:href="#f0_n" transform="matrix(116,0,0,116,3449.7,1131.5)" />
<use xlink:href="#f0_q" transform="matrix(116,0,0,116,3544.8,1131.5)" />
<use xlink:href="#f0_d" transform="matrix(116,0,0,116,3613.7,1131.5)" />
<use xlink:href="#f0_b" transform="matrix(116,0,0,116,3765.9,1131.5)" />
<use xlink:href="#f0_m" transform="matrix(116,0,0,116,3859,1131.5)" />
<use xlink:href="#f0_d" transform="matrix(116,0,0,116,3955.8,1131.5)" />
<use xlink:href="#f0_c" transform="matrix(116,0,0,116,4107.9,1131.5)" />
<use xlink:href="#f0_e" transform="matrix(116,0,0,116,4206.7,1131.5)" />
<use xlink:href="#f0_w" transform="matrix(116,0,0,116,4303.3,1131.5)" />
<use xlink:href="#f0_n" transform="matrix(116,0,0,116,4390.7,1131.5)" />
<use xlink:href="#f0_m" transform="matrix(116,0,0,116,4485.8,1131.5)" />
<use xlink:href="#f0_d" transform="matrix(116,0,0,116,4582.7,1131.5)" />
<use xlink:href="#f0_7" transform="matrix(114,0,0,114,600.2,3404)" />
</g>
</g>
<text x="598" y="1131" dx="0,-0.1,-0.1,0.1,-0.1,0.1,-0.1,-0.1,-0.1,0.1,0,0.1,0,0.1,0.1,-0.1,0,0.1,-0.1,-0.1,0.1,0,0,0.1,0,0,0.1,-0.1,0,0.1,0.1,0.1,0.1,0,0.1,0.1,0.1,-0.1,-0.1,-0.1,0,0.1,0.1,0.1,0,0.1,0,0.1,0,-0.1,0.1" class="s2_1">over forty years of ministry at Stanford and beyond</text>
<g clip-path="url(#c0_1)">
<g fill="#000000" >
<use xlink:href="#f0_m" transform="matrix(114,0,0,114,648.7,3404)" />
<use xlink:href="#f0_5" transform="matrix(114,0,0,114,743.9,3404)" />
<use xlink:href="#f0_d" transform="matrix(114,0,0,114,807.8,3404)" />
<use xlink:href="#f0_e" transform="matrix(114,0,0,114,904.8,3404)" />
<use xlink:href="#f0_o" transform="matrix(114,0,0,114,999.8,3404)" />
<use xlink:href="#f0_s" transform="matrix(114,0,0,114,1096.9,3404)" />
<use xlink:href="#f0_h" transform="matrix(114,0,0,114,1165.9,3404)" />
<use xlink:href="#f0_f" transform="matrix(114,0,0,114,1313.6,3404)" />
<use xlink:href="#f0_e" transform="matrix(114,0,0,114,1377.9,3404)" />
<use xlink:href="#f0_e" transform="matrix(114,0,0,114,1472.9,3404)" />
<use xlink:href="#f0_d" transform="matrix(114,0,0,114,1567.9,3404)" />
<use xlink:href="#f0_i" transform="matrix(114,0,0,114,1664.9,3404)" />
<use xlink:href="#f0_m" transform="matrix(114,0,0,114,1714.6,3404)" />
<use xlink:href="#f0_g" transform="matrix(114,0,0,114,1809.8,3404)" />
<use xlink:href="#f0_i" transform="matrix(114,0,0,114,1949.7,3404)" />
<use xlink:href="#f0_m" transform="matrix(114,0,0,114,1999.4,3404)" />
<use xlink:href="#f0_6" transform="matrix(114,0,0,114,2147,3404)" />
<use xlink:href="#f0_n" transform="matrix(114,0,0,114,2264.8,3404)" />
<use xlink:href="#f0_d" transform="matrix(114,0,0,114,2358.2,3404)" />
<use xlink:href="#f0_x" transform="matrix(114,0,0,114,2455.3,3404)" />
<use xlink:href="#f0_r" transform="matrix(114,0,0,114,2507.2,3404)" />
<use xlink:href="#f0_a" transform="matrix(114,0,0,114,2630.2,3404)" />
<use xlink:href="#f0_n" transform="matrix(114,0,0,114,2770.6,3404)" />
<use xlink:href="#f0_q" transform="matrix(114,0,0,114,2864.1,3404)" />
<use xlink:href="#f0_d" transform="matrix(114,0,0,114,2931.8,3404)" />
<use xlink:href="#f0_f" transform="matrix(114,0,0,114,3081.3,3404)" />
<use xlink:href="#f0_n" transform="matrix(114,0,0,114,3145.6,3404)" />
<use xlink:href="#f0_q" transform="matrix(114,0,0,114,3239.1,3404)" />
<use xlink:href="#f0_o" transform="matrix(114,0,0,114,3359.3,3404)" />
<use xlink:href="#f0_e" transform="matrix(114,0,0,114,3456.3,3404)" />
<use xlink:href="#f0_q" transform="matrix(114,0,0,114,3551.3,3404)" />
<use xlink:href="#f0_r" transform="matrix(114,0,0,114,3619,3404)" />
<use xlink:href="#f0_n" transform="matrix(114,0,0,114,3689.5,3404)" />
<use xlink:href="#f0_m" transform="matrix(114,0,0,114,3783,3404)" />
<use xlink:href="#f0_b" transform="matrix(114,0,0,114,3878.1,3404)" />
<use xlink:href="#f0_k" transform="matrix(114,0,0,114,3969.6,3404)" />
<use xlink:href="#f0_g" transform="matrix(114,0,0,114,4073.5,3404)" />
<use xlink:href="#f0_q" transform="matrix(114,0,0,114,4160.9,3404)" />
<use xlink:href="#f0_n" transform="matrix(114,0,0,114,4228.6,3404)" />
<use xlink:href="#f0_v" transform="matrix(114,0,0,114,4322.1,3404)" />
<use xlink:href="#f0_s" transform="matrix(114,0,0,114,4451.7,3404)" />
<use xlink:href="#f0_h" transform="matrix(114,0,0,114,4520.7,3404)" />
<use xlink:href="#f0_4" transform="matrix(114,0,0,114,4615.8,3404)" />
</g>
</g>
<text x="600" y="3404" dx="0,0.1,0.1,0,0,0.1,0,0.1,0.1,0.1,-0.1,0.1,0.1,0,0,0.1,0,0.1,0,0.1,0.1,0.1,-0.1,0,-12,0,0.1,-8,-0.1,-0.1,0,0.1,-0.1,-0.1,-0.1,0.1,0,0.1,-0.1,0,-0.1,0.1,0.1,0,0.1,0,-0.1,-0.1,0,0.1,0,0" class="s3_1">In-depth feeding in God’s Word for personal growth, </text>
<g clip-path="url(#c0_1)">
<g fill="#000000" >
<use xlink:href="#f0_k" transform="matrix(114,0,0,114,624.2,3646)" />
<use xlink:href="#f0_i" transform="matrix(114,0,0,114,675.6,3646)" />
<use xlink:href="#f0_f" transform="matrix(114,0,0,114,725.2,3646)" />
<use xlink:href="#f0_e" transform="matrix(114,0,0,114,789.6,3646)" />
<use xlink:href="#f0_5" transform="matrix(114,0,0,114,884.6,3646)" />
<use xlink:href="#f0_g" transform="matrix(114,0,0,114,948.6,3646)" />
<use xlink:href="#f0_i" transform="matrix(114,0,0,114,1036,3646)" />
<use xlink:href="#f0_u" transform="matrix(114,0,0,114,1085.7,3646)" />
<use xlink:href="#f0_i" transform="matrix(114,0,0,114,1170.9,3646)" />
<use xlink:href="#f0_m" transform="matrix(114,0,0,114,1220.6,3646)" />
<use xlink:href="#f0_g" transform="matrix(114,0,0,114,1315.8,3646)" />
<use xlink:href="#f0_q" transform="matrix(114,0,0,114,1455.7,3646)" />
<use xlink:href="#f0_e" transform="matrix(114,0,0,114,1523.4,3646)" />
<use xlink:href="#f0_k" transform="matrix(114,0,0,114,1618.4,3646)" />
<use xlink:href="#f0_b" transform="matrix(114,0,0,114,1669.7,3646)" />
<use xlink:href="#f0_s" transform="matrix(114,0,0,114,1761.2,3646)" />
<use xlink:href="#f0_i" transform="matrix(114,0,0,114,1830.3,3646)" />
<use xlink:href="#f0_n" transform="matrix(114,0,0,114,1880,3646)" />
<use xlink:href="#f0_m" transform="matrix(114,0,0,114,1973.4,3646)" />
<use xlink:href="#f0_r" transform="matrix(114,0,0,114,2068.6,3646)" />
<use xlink:href="#f0_h" transform="matrix(114,0,0,114,2139.1,3646)" />
<use xlink:href="#f0_i" transform="matrix(114,0,0,114,2234.3,3646)" />
<use xlink:href="#f0_o" transform="matrix(114,0,0,114,2283.9,3646)" />
<use xlink:href="#f0_r" transform="matrix(114,0,0,114,2381,3646)" />
<use xlink:href="#f0_4" transform="matrix(114,0,0,114,2451.5,3646)" />
<use xlink:href="#f0_3" transform="matrix(114,0,0,114,2567.9,3646)" />
<use xlink:href="#f0_e" transform="matrix(114,0,0,114,2743.4,3646)" />
<use xlink:href="#f0_p" transform="matrix(114,0,0,114,2838.3,3646)" />
<use xlink:href="#f0_t" transform="matrix(114,0,0,114,2935.4,3646)" />
<use xlink:href="#f0_i" transform="matrix(114,0,0,114,3030.5,3646)" />
<use xlink:href="#f0_o" transform="matrix(114,0,0,114,3080.2,3646)" />
<use xlink:href="#f0_o" transform="matrix(114,0,0,114,3177.2,3646)" />
<use xlink:href="#f0_i" transform="matrix(114,0,0,114,3274.3,3646)" />
<use xlink:href="#f0_m" transform="matrix(114,0,0,114,3323.9,3646)" />
<use xlink:href="#f0_g" transform="matrix(114,0,0,114,3419.1,3646)" />
<use xlink:href="#f0_s" transform="matrix(114,0,0,114,3559,3646)" />
<use xlink:href="#f0_n" transform="matrix(114,0,0,114,3628.1,3646)" />
<use xlink:href="#f0_h" transform="matrix(114,0,0,114,3774,3646)" />
<use xlink:href="#f0_e" transform="matrix(114,0,0,114,3869.2,3646)" />
<use xlink:href="#f0_k" transform="matrix(114,0,0,114,3964.2,3646)" />
<use xlink:href="#f0_o" transform="matrix(114,0,0,114,4015.5,3646)" />
<use xlink:href="#f0_n" transform="matrix(114,0,0,114,4165,3646)" />
<use xlink:href="#f0_s" transform="matrix(114,0,0,114,4258.4,3646)" />
<use xlink:href="#f0_h" transform="matrix(114,0,0,114,4327.5,3646)" />
<use xlink:href="#f0_e" transform="matrix(114,0,0,114,4422.6,3646)" />
<use xlink:href="#f0_q" transform="matrix(114,0,0,114,4517.6,3646)" />
<use xlink:href="#f0_r" transform="matrix(114,0,0,114,4585.3,3646)" />
</g>
<g fill="#239FFF" >
<use xlink:href="#f1_4" transform="matrix(98,0,0,98,1243.9,844.4)" />
</g>
</g>
<text x="624" y="3646" dx="0,0,0,-0.1,0.1,0,0,0,-0.1,0,0.1,0,0.1,-0.1,0.1,0,0.1,0.1,0,-0.1,0.1,0,0.1,0,0,0,0,0.1,0,0.1,0.1,0,0.1,0,0,0,0,0.1,0,0.1,0.1,-0.1,0.1,0.1,0.1,0,0,0.1,-0.2,0.1,0.1,0.1,-0.1" class="s3_1">life-giving relationships, &amp; equipping to help others</text>
<g clip-path="url(#c0_1)">
<g fill="#239FFF" >
<use xlink:href="#f1_6" transform="matrix(98,0,0,98,1398.4,844.4)" />
<use xlink:href="#f1_b" transform="matrix(98,0,0,98,1563.6,844.4)" />
<use xlink:href="#f1_7" transform="matrix(98,0,0,98,1718,844.4)" />
<use xlink:href="#f1_c" transform="matrix(98,0,0,98,1822.6,844.4)" />
<use xlink:href="#f1_d" transform="matrix(98,0,0,98,1961.9,844.4)" />
<use xlink:href="#f1_7" transform="matrix(98,0,0,98,2116.4,844.4)" />
<use xlink:href="#f1_3" transform="matrix(98,0,0,98,2221.1,844.4)" />
<use xlink:href="#f1_a" transform="matrix(98,0,0,98,2378.8,844.4)" />
<use xlink:href="#f1_9" transform="matrix(98,0,0,98,2649.8,844.4)" />
<use xlink:href="#f1_7" transform="matrix(98,0,0,98,2824.2,844.4)" />
<use xlink:href="#f1_a" transform="matrix(98,0,0,98,2928.8,844.4)" />
<use xlink:href="#f1_7" transform="matrix(98,0,0,98,3091.7,844.4)" />
<use xlink:href="#f1_c" transform="matrix(98,0,0,98,3196.3,844.4)" />
<use xlink:href="#f1_d" transform="matrix(98,0,0,98,3335.6,844.4)" />
<use xlink:href="#f1_b" transform="matrix(98,0,0,98,3490.1,844.4)" />
<use xlink:href="#f1_7" transform="matrix(98,0,0,98,3644.5,844.4)" />
<use xlink:href="#f1_5" transform="matrix(98,0,0,98,3749.1,844.4)" />
<use xlink:href="#f1_c" transform="matrix(98,0,0,98,3897.1,844.4)" />
</g>
</g>
<text x="1243" y="844" dx="0,0,17.8,0,17.8,0,17.8,0,17.9,0,17.8,0,17.8,0,17.9,0,17.9,63,63,0,17.8,0,17.9,0,17.9,0,17.9,0,17.8,0,17.8,0,17.8,0,17.9,0,17.8" class="s4_1">C H R I S T I A N M I N I S T R I E S</text>
<path d="M4122.5,2909.4c11.1,-11.5,16.9,-24.7,29.2,-66.7c10.7,-36.2,14.7,-42.7,25.3,-40.7c4.9,.9,13.1,.1,18.4,-1.9c108.5,-41.2,126.8,-53.6,146,-99.3c5.9,-14.2,10,-27.8,9,-30.3c-1,-2.6,7.3,-12.5,19.3,-23l20.9,-18.5l29.4,2.5c29.3,2.4,29.4,2.4,29.3,-5.8c-.1,-4.5,-2.4,-11.2,-5.2,-14.9c-2.8,-3.7,-5.1,-7.8,-5.1,-9.1c0,-2.5,46.5,-24,52,-24c1.9,0,3.5,2.6,3.5,5.7c0,9.5,20.1,37.9,36.1,51c36.4,29.9,89,24.4,136.5,-14.1l14.8,-12.1l-9.6,-9.4c-35.9,-35.3,-66.1,-47.3,-111.9,-44.7l-28.2,1.7l15.2,-9.5c8.4,-5.2,20.4,-15.9,26.5,-23.7c6.2,-7.8,13.3,-14.2,15.8,-14.2c5,0,16,5.4,30.5,15.2c7.2,4.8,13.8,6,26.4,4.8c22,-2.1,68.4,-32.4,81.6,-53.3c5,-7.8,9,-15.1,9,-16.1c0,-.9,-5,-3.9,-11.2,-6.5c-15.2,-6.3,-59.8,-5.4,-76.4,1.6l-13,5.4l11.3,-14c6.2,-7.8,21.9,-21.2,34.9,-29.9c30.7,-20.6,42.3,-35.1,50.3,-63.2c.8,-2.8,2.2,-19.2,3,-36.3c1.2,-23.3,.4,-32.9,-3.2,-37.7c-7.2,-9.6,-18,-4.5,-31,14.5c-6,8.9,-17.4,24,-25.2,33.6c-24.6,29.9,-32.2,58.1,-22.5,83.5c3.2,8.7,2.3,10.9,-10,23.1l-13.5,13.6l3.2,-20.3c5.2,-31.9,2.3,-67.3,-6.3,-78.2l-7.2,-9.2l-10.9,11.6c-6.1,6.4,-11,13.1,-11,14.8c0,1.7,-3.8,6.8,-8.5,11.1c-4.7,4.4,-9.5,12.5,-10.7,17.9c-1.2,5.5,-3.6,10.8,-5.3,11.9c-1.8,1.1,-3.2,13.7,-3.2,28c0,22.7,1.1,27.5,9,37.9c10.1,13.2,11.2,9.8,-12.5,39.1c-9.8,12.2,-45.1,35.9,-45.1,30.4c0,-.8,4,-9.1,8.8,-18.4c4.8,-9.3,11.4,-29.6,14.6,-45.1c5,-24.3,5.2,-32.3,1.7,-56.9c-2.3,-15.7,-5.8,-30.1,-7.6,-32c-10,-9.9,-47.2,26,-64.7,62.5c-11.8,24.6,-12.4,27.2,-11.2,56.5c1.1,28,2.1,31.7,10.6,40.7l9.5,9.8l-19,8.2c-10.4,4.5,-20.7,10.3,-22.9,12.9c-8.9,10.7,-13.4,5.2,-13.4,-16.2c0,-24.9,-5.3,-38.5,-25.9,-67.4c-15.2,-21.4,-41.6,-42.1,-57.5,-45.1c-4.2,-.9,-8.2,-2,-8.7,-2.5c-.5,-.5,-1.9,-11.1,-3.1,-23.5c-3.4,-35.2,-9,-55.3,-22.1,-79.7c-10.8,-20.2,-34.3,-57.9,-38.8,-62.4c-1,-.9,-6.4,-7.9,-12,-15.4c-5.7,-7.6,-12.7,-16.2,-15.7,-19.2c-14.9,-14.9,-24.6,-32,-29.7,-52.2c-7.2,-28.5,-11.6,-33.5,-21.9,-25.1c-6,4.8,-8,10.8,-9,25.7c-1.6,25.3,-6.7,63.9,-8.7,66.3c-.3,.5,-1.4,5.6,-2.2,11.3c-.8,5.7,-3,13.5,-4.7,17.3c-1.7,3.8,-12.1,25.6,-22.9,48.5c-25.8,54.3,-30.1,66.6,-25.8,74.5c1.9,3.5,-19.5,-16.2,-47.4,-43.8c-27.9,-27.6,-60.3,-57.4,-71.9,-66.3c-11.6,-8.8,-21.9,-16.9,-22.9,-17.9c-.9,-1.1,-9.5,-7.3,-19,-13.9c-13.8,-9.8,-26.9,-18.4,-41.6,-28.8c-10.5,-6.7,-19.8,-13.6,-31,-20.8c-7.2,-4.4,-15.9,-10.3,-23.7,-14.7c-32.5,-19.9,-62.7,-43.5,-91.1,-69.2c-24.4,-24.4,-30.8,-34.4,-41.6,-65c-4.7,-13.6,-7.2,-16.5,-14.2,-16.5c-4.7,0,-9.4,2.5,-10.6,5.5c-2.8,7.4,4.8,182.6,8.8,202.4c1.7,8.6,5,25.7,7.2,38.1c7.6,42.4,26.5,87.2,53.4,126.8c14.3,21.2,42.3,43.6,68.2,54.7c16.2,7,57.3,19.5,64,19.5c2.9,0,5.3,1.6,5.3,3.5c0,2,-12.1,3.4,-29.5,3.4h-29.6l5.3,10.3c6,11.6,29.2,31.9,49.1,43.1c7.4,4.1,12.8,9,12.1,10.8c-.7,1.9,-11.3,6.1,-23.5,9.5c-14.4,3.9,-28.7,11.1,-40.4,20.1c-25.3,19.7,-72.2,66.2,-96.9,95.9c-20.2,24.3,-20.7,25.4,-16.5,35.6c6.7,16.2,32.3,36.4,61.8,48.9c33.7,14.3,73.2,17.7,94.6,8.1c12.9,-5.9,13.5,-6.8,13.5,-22.4c0,-19.9,5.2,-36.2,16.3,-51.1c10.1,-13.6,17.9,-14.2,29.1,-2.3c13.5,14.4,51.4,40.1,77.5,52.6c36.8,17.6,62,25.1,85.1,25.1c13.2,0,20.9,1.4,20.9,3.9c0,2.1,-6.5,15.7,-14.5,30.2c-8,14.4,-18.7,34.1,-23.8,43.7c-7.8,14.6,-11.1,17.6,-20.2,18.5c-12.9,1.3,-13.5,4,-3,13.5c5.8,5.3,26.4,14.9,31.9,14.9c.3,0,5.4,-5.1,11.4,-11.3Z" class="g1_1" />
<path d="M4208.3,2777.2c13.4,-4.3,39.5,-14.8,58.1,-23.4c41.1,-19,61.2,-39.1,67.1,-67c2.3,-10.7,8.8,-22.7,11.4,-21c4,2.4,28.2,-26.9,28.2,-34.1c0,-10.7,-11.7,-5.7,-67.7,28.5c-57.7,35.3,-67.9,42.8,-90.2,67.4c-16.3,17.9,-36.3,48.8,-36.3,56.1c0,2.7,2.6,2.1,29.4,-6.5Zm-50.5,-4.6c3.9,-5.3,8.4,-11.1,9.9,-13c1.5,-1.9,7.7,-10.5,13.6,-19.1c16.3,-23.4,55.2,-59.8,82.5,-77.1c25.6,-16.3,101.6,-56.1,107.6,-56.3c1.8,-.1,2.9,-2.9,2.3,-6.4c-.6,-3.4,4.7,-13.3,11.8,-21.9c11.1,-13.6,14.2,-15.4,22.8,-13.7c9.7,2,9.9,1.7,9.9,-13.5c0,-33.3,-38.4,-78.4,-74.6,-87.6c-18.3,-4.7,-55,2.3,-56.6,10.9c-.8,3.8,-4.6,5.8,-11.3,5.8c-9.3,0,-10.1,.8,-8,9c2.2,8.6,1.8,8.9,-8.6,6.6c-10.6,-2.3,-10.8,-2.1,-7.5,6.6c3.2,8.4,2.8,8.9,-7.3,8.9c-11,0,-10.9,-.4,-4,16.5c1.1,2.8,-1.4,4.3,-7.2,4.3c-11.7,0,-16.8,10,-14,27.6c2.5,15.7,.7,16.7,-18.3,9.8c-9.8,-3.5,-11.5,-5.8,-11.5,-15.3c0,-6.2,-1.6,-12.2,-3.5,-13.4c-1.9,-1.2,-3.5,-4.4,-3.5,-7.2c0,-9,-34.4,-60.9,-67.9,-102.4c-22.2,-27.4,-45.2,-50.8,-71.7,-73c-73.7,-61.7,-82.9,-68,-184.6,-126c-34.4,-19.6,-74.2,-43.1,-88.5,-52.3c-14.3,-9.3,-26.9,-17.2,-28.1,-17.8c-7.3,-3.4,-19,66.8,-15.7,93.9c5.2,41.4,12.7,78.3,16.6,80.6c1.6,1.1,3,4.3,3,7.4c0,8.7,29.3,68.1,41.8,84.8c18.7,24.7,80.5,56.8,142,73.7c12.4,3.4,24.5,6.7,26.8,7.4c2.4,.7,4.4,2.8,4.4,4.8c0,2.1,-10.6,3.6,-26.3,3.6c-27.8,0,-42.8,6.4,-40.5,17.3c3.2,14.8,55.9,35.5,119.7,46.9c13.5,2.5,15.4,4.7,9.4,10.7c-2.5,2.5,5.3,6.5,25.3,12.9c16,5,31.7,9.2,35.1,9.2c3.4,0,5.5,1.9,4.8,4.3c-4.9,14.8,-92.8,-4.7,-92.8,-20.6c0,-2.4,-4.3,-5.4,-9.6,-6.6c-5.2,-1.2,-18.1,-4.6,-28.6,-7.4c-31.4,-8.5,-36.6,-8.8,-42.5,-2.9c-3.1,3,-7.3,5.5,-9.4,5.5c-16.7,0,-98.4,75.9,-113.7,105.6c-12.2,23.8,-15.2,38.6,-9,43.8c2.6,2.2,5.4,3.4,6.1,2.7c1.9,-2.1,30.8,-52,36.7,-63.5c10.5,-20.2,6.9,.4,-5.3,30.9c-20.3,50.5,-20,48.7,-6.7,52.8l11.5,3.6l9,-28.2c12.6,-39.3,16.5,-43.8,13.9,-16.1c-1.1,12.4,-3.4,28.7,-5.1,36.3c-1.6,7.6,-2.7,14.1,-2.3,14.4c.3,.4,6.3,1.7,13.3,3.1c12.2,2.2,12.7,1.9,14.9,-9.3c4.3,-22.5,9.8,-41.2,11.7,-39.3c1,1,2,6.9,2.3,13.1c1.7,47.1,.9,44.1,12.2,44.1h10.4v-22c0,-25.6,4.5,-40.4,17.7,-58.7l9.5,-13.2l-6.6,-14.6c-11.9,-26.2,-7.1,-24.4,17.6,6.8c13.4,16.8,34.1,38.1,45.9,47.2c40.8,31.1,102.1,54.4,143.7,54.5c15.5,0,18.9,-1.3,25.1,-9.5Zm-7.6,-196.7c-4.6,-22.4,-10.1,-41.4,-12.5,-43.3c-1.2,-.9,-5.3,-7.9,-9.1,-15.6c-7,-14,-47.8,-69.1,-54,-72.9c-1.8,-1.1,-2.5,-3.4,-1.5,-5c2.6,-4.2,28.9,13.6,31.3,21c1,3.3,4.2,6.9,7,8c2.8,1.1,5,4.2,5,7c0,2.8,3.2,6.1,7,7.3c4.3,1.3,6.9,5.2,6.9,10.2c0,4.5,2.3,9,5.2,10.1c2.9,1.1,5.2,5,5.2,8.6c0,3.6,2.4,8.6,5.4,11.1c2.9,2.4,4.5,6.6,3.5,9.2c-1,2.6,.5,5.6,3.4,6.8c3.2,1.2,4.5,4.4,3.3,8.1c-1.2,3.7,.2,6.9,3.6,8.2c3.1,1.2,5.1,4.9,4.5,8.2c-.5,3.4,.3,8.1,1.8,10.5c4.1,6.6,-1,18.7,-7.4,17.4c-3.5,-.6,-6.8,-6.4,-8.6,-14.9Zm187.3,-5.7c-3.3,-3.9,-6,-10.7,-6,-15.1c0,-4.3,2.7,-11.2,6,-15.2c5.5,-6.7,7.2,-7,17.4,-3.1c11.3,4.3,14.9,9.5,6.9,9.9c-2.4,.1,-.8,1.6,3.5,3.4c9.4,3.7,10.5,17.4,2.1,25.8c-7.1,7.1,-21.3,4.4,-29.9,-5.7ZM4047.2,2413.9c-.1,-1.4,.9,-2.5,2.2,-2.5c3.6,0,15,11,15,14.5c0,3.7,-17,-8.2,-17.2,-12Zm158,105.1c1.7,-3.7,13.3,-17.2,25.7,-30.1c21.8,-22.7,23.5,-23.7,53.7,-31.7c35.5,-9.5,40.5,-12.5,38.3,-22.9c-13.4,-62,-23.6,-85.9,-57.4,-134.1c-13.6,-19.5,-26.6,-37.3,-28.8,-39.6c-2.3,-2.3,-10.3,-12.1,-17.9,-21.9c-7.7,-9.7,-15.1,-17.7,-16.5,-17.8c-1.5,-.1,-2.6,6.2,-2.6,13.9c0,22.9,-7.1,63.1,-13,74.3c-3.1,5.7,-13,19,-22.1,29.5c-18.1,20.9,-30.8,46.9,-30.8,62.9c0,5.7,-1.6,13.3,-3.5,16.9c-3,5.5,-.1,10.3,17.4,29.6c11.5,12.8,27.5,35.4,35.6,50.4c8,14.9,15.6,27.2,16.7,27.2c1.1,.1,3.5,-2.9,5.2,-6.6Z" class="g0_1" />
<path d="M4610.6,2639.8c12.6,-3.7,42.8,-19.5,51.3,-26.9c5.8,-5,5.2,-5.7,-9.2,-11.2c-8.5,-3.2,-25.3,-7.5,-37.4,-9.6c-31.2,-5.4,-68.5,-10.9,-82.7,-12.2c-8.3,-.8,-6.5,-1.3,5.9,-1.7c9.8,-.3,22.1,-2.1,27.3,-4.1c6.3,-2.4,10.7,-2.4,13.5,0c2.3,1.9,5.3,2.5,6.5,1.2c1.3,-1.3,4.5,.6,7.2,4.2c3.7,5.1,5.8,5.7,9.6,2.6c3.1,-2.6,6.6,-2.9,9.9,-.8c16.1,10.1,13,-1.7,-3.2,-12.5c-12.8,-8.4,-15.6,-8.8,-52,-7.8c-36.3,1,-38.4,.7,-36.4,-5.4c1.1,-3.6,.5,-7.5,-1.4,-8.7c-4.8,-3,4.1,-44.4,11.3,-52.3c4.2,-4.7,5.4,-11.7,4.6,-28.3l-1.1,-22l-11.9,32.6c-6.6,17.9,-12.5,31,-13.1,29c-.7,-1.9,2.6,-18.1,7.4,-35.8c6.3,-23.7,7.6,-34,5.1,-38.8c-4.5,-8.2,-12,-5.9,-11,3.4c.5,4.5,-1.7,7.7,-6,8.9c-3.8,1,-6.9,4.2,-6.9,7.3c0,3,-2.3,5.5,-5.2,5.5c-6.8,0,-6.7,5.6,.3,8.3c7.2,2.8,2.9,9,-6.4,9c-5.7,0,-6.5,.9,-3.2,4.2c6,6,5.1,8.6,-3.5,10.9c-7.3,1.9,-7.3,2.2,-1.6,8.6c5.6,6.1,5.6,6.8,.3,8.9c-4.5,1.7,-4.9,3.2,-1.6,7.1c2.9,3.5,3.1,6.9,.7,11.2c-3.8,6.7,.5,18.1,8.6,22.9c2.6,1.5,4.7,5.9,4.7,9.7c0,3.9,-1.6,6.1,-3.5,4.9c-5.4,-3.3,-17.3,1.5,-17.3,7c0,2.7,-4.3,7.3,-9.6,10.2l-9.5,5.3l10.4,-2.2c5.7,-1.3,14,-3.6,18.4,-5.2c13.4,-5,19,-3.7,17.1,3.7c-1,3.9,.3,7.5,3,8.6c2.7,1,4.9,3.9,4.9,6.4c0,7.4,24.6,29,41.6,36.4c18.5,8.1,49.6,11.7,64.1,7.5Zm-258.3,-13.6c2.8,-1.9,8.3,-3.4,12.1,-3.5c10.8,-.1,18.1,-5.8,13.4,-10.5c-3.7,-3.7,-18.7,2.1,-35.9,13.8c-4.7,3.1,-4.7,3.5,0,3.5c2.8,0,7.5,-1.5,10.4,-3.3ZM4670,2508.6c18.6,-10.7,36,-28.6,36,-36.8c0,-3.7,-8,-2,-32.9,7c-18.2,6.6,-33,11.3,-33,10.5c0,-.8,4.9,-7,10.8,-13.7c13,-14.9,8.4,-15.4,-19.4,-2.3c-11.5,5.4,-21.8,8.4,-22.9,6.7c-1.1,-1.7,-4.1,-.7,-6.6,2.4c-2.5,3,-6.7,4.7,-9.3,3.7c-3.3,-1.3,-4.6,1.7,-4.6,10.6c0,11.3,.7,12.2,8.2,10.3c4.6,-1.1,12.8,.2,18.2,2.8c21.1,10.2,36.3,9.9,55.5,-1.2Zm-51,-47.1c5.9,-6.8,10.7,-14.2,10.7,-16.5c-.1,-3.1,-.8,-3.2,-2.6,-.2c-1.4,2.2,-2,-14.8,-1.3,-37.7c1.3,-43.4,1.2,-43.5,-12.7,-32.8c-3.5,2.7,-3.3,4.6,1.2,9.5c5.1,5.6,5,6.4,-.6,9.6c-5,2.7,-5.4,4.4,-2,8.5c3.4,4,3.1,6,-1.3,9.7c-5.1,4.2,-5,5,.7,9.2c6.1,4.4,6,4.7,-1.4,6.7c-8.7,2.2,-9.6,4.8,-3.7,10.7c3,3.1,2.9,5.4,-.7,9.6c-3.3,4.1,-3.5,6.3,-.7,8.1c2.6,1.6,2.8,4.2,.7,7.5c-9.3,14.8,.2,13.4,13.7,-1.9Zm55.8,-45.8c16.1,-10.5,45.6,-40.7,52.3,-53.6c7.5,-14.4,8.6,-34.3,2.8,-50.8c-3,-8.7,-4.8,-10.2,-8.5,-7.2c-2.5,2.1,-5.1,8,-5.6,13.1c-.8,6.5,-3.4,9.6,-8.9,10.4c-8.6,1.2,-10.2,7.3,-3.5,13.9c3.3,3.3,2.6,4.7,-3.5,6.3c-8.9,2.3,-9,2.7,-4.2,11.8c3.1,5.8,2.4,6.7,-5.2,6.7c-10,0,-9.9,-.1,-5.4,11.9c3.1,8,2.6,8.9,-5.1,8.9c-7.5,0,-8.3,1.1,-6.5,10c1.6,8.1,.6,10.5,-4.9,12.3c-7.8,2.5,-13.3,12.4,-6.7,12.2c2.3,-.1,8.1,-2.8,12.9,-5.9Z" class="g2_1" />
<path d="M4603.6,2627.8c14.4,-12.1,19.2,-12.5,19.2,-1.5c0,5.9,1.7,5.4,15.8,-4.5c14.9,-10.4,15.3,-11.2,7.8,-13.4c-18.4,-5.2,-78.5,-15.7,-107.3,-18.7l-19.5,-2l1.8,9.2c1.5,7.8,3.2,8.9,11.7,7.7c6.7,-1,9.9,0,9.9,3.1c0,6,6.3,5.8,18.2,-.4c11.5,-6,11.8,-4.6,2.3,10.7c-3.9,6.4,-6.5,11.6,-5.6,11.6c.9,0,10.4,-3.8,21.1,-8.6c10.7,-4.7,19.5,-8.1,19.5,-7.4c0,.6,-2.5,6.1,-5.6,12.3c-3,6.1,-5,11.6,-4.3,12.3c.7,.6,7.4,-4,15,-10.4Zm-238.3,-7.1c6.2,-2.7,11,-6.1,11,-8c0,-2.4,-3.1,-2.4,-17.6,4.8c-16.7,8.2,-12.1,10.9,6.6,3.2ZM4511.9,2534c3.8,-8.7,7.8,-20,9,-25.1c1.7,-7.6,.3,-6.6,-7.7,5.4c-5.3,8,-10.4,14,-11.2,13.2c-.7,-.8,.2,-8.9,2.2,-18.1c4.7,-21.2,8.4,-48,6.4,-46c-.8,.9,-6.5,16,-12.6,33.6c-10.8,31.5,-11.4,44.2,-2.2,50.3c7,4.6,9.2,2.8,16.1,-13.3Zm164.6,-38.4c18.3,-9.4,22.4,-13.4,22.5,-21.7c.1,-3.4,-1.1,-3.6,-4.1,-.9c-2.4,2.2,-6.6,4.2,-9.5,4.3c-3,0,-14.3,3.7,-25.2,8.2c-10.9,4.5,-20.3,6.6,-20.9,4.8c-.6,-1.7,-8.7,-.2,-18,3.4l-16.9,6.6l16.6,2.3c27.1,3.7,37.3,2.5,55.5,-7Zm-63.2,-35.2c6.5,-11,13.5,-56.8,10.9,-64.9c-1.6,-4.8,-3.6,-3.1,-5.3,-.2c-1.8,3.2,.4,7.8,-2.3,15.8c-1.1,3.4,.4,8,1,11.2c.7,3.7,-4.2,8.4,-5,9.1c-3.6,3.3,.5,11.3,-3.2,20.4c-1.9,4.5,-1.8,4.7,-1.2,7.8c.7,3.5,-5.8,11,-1.2,11c1.4,0,3,-4.8,6.3,-10.2Zm80.6,-68.6c12.2,-6.3,29.5,-31.5,29.5,-43.3c0,-4.5,1.4,-13.2,3.1,-19.3c4.1,-14.1,1.3,-26.9,-4.8,-21.8c-2.4,1.9,-3.6,7.2,-2.7,11.8c1.2,6.2,-.3,9,-5.7,10.6c-9.6,2.9,-4.4,5,-4.4,14.4c0,3.7,-3.3,7.4,-4.8,11.4c-1.5,3.9,-1.3,8,-3.4,11.9c-2.1,3.9,-5.5,6.2,-7.4,9.3c-2,3.1,-2.2,7.2,-5.2,10.1c-12,11.7,-9.5,12.6,5.8,4.9Z" class="g3_1" />
<path d="M4438.7,2622.9c9.9,-6.2,-14.4,-48.7,-27.8,-48.7c-3.3,0,-10.7,3.9,-16.4,8.7c-5.6,4.7,-9.7,9.1,-12.8,9.2c-9.1,.4,-7.2,7,19,20.2c30.1,15.1,30.7,15.3,38,10.6Z" class="g4_1" />
<path d="M2704.2,2207.7c-47.1,-78.6,-125.7,-133.5,-219.8,-133.5c-133.5,0,-235.5,102.1,-235.5,235.5c0,259.1,141.3,298.3,455.3,596.6c314,-298.3,455.3,-337.5,455.3,-596.6c0,-133.4,-102.1,-235.5,-235.5,-235.5c-94.2,0,-172.7,54.9,-219.8,133.5Z" class="g5_1" />
<path d="M899,2076.9h69.4v828.3H899Z" class="g6_1" />
<path d="M1536.3,2076.9v828.3H968.4V2076.9ZM1409,2394v-81.9H1293.4V2207h-82.1v105.1H1095.7V2394h115.6v381h82.1V2394Z" class="g7_1" />
<path d="M1409,2312.1V2394H1293.4v381h-82.1V2394H1095.7v-81.9h115.6V2207h82.1v105.1Z" class="g6_1" />
<path d="M968.4,2076.9h567.9v828.3H899V2076.9ZM1409,2312.1H1293.4V2207h-82.1v105.1H1095.7V2394h115.6v381h82.1V2394H1409ZM968.4,2076.9v828.3" class="g8_1" />
<g clip-path="url(#c0_1)">
<g fill="#000000" >
<use xlink:href="#f1_8" transform="matrix(292,0,0,292,2243.8,1834.4)" />
<use xlink:href="#f1_i" transform="matrix(292,0,0,292,2490.4,1834.4)" />
<use xlink:href="#f1_m" transform="matrix(292,0,0,292,2742.7,1834.4)" />
<use xlink:href="#f1_e" transform="matrix(292,0,0,292,2978.1,1834.4)" />
<use xlink:href="#f1_d" transform="matrix(292,0,0,292,655.8,1834.4)" />
<use xlink:href="#f1_j" transform="matrix(292,0,0,292,883.1,1834.4)" />
<use xlink:href="#f1_l" transform="matrix(292,0,0,292,1073.7,1834.4)" />
<use xlink:href="#f1_k" transform="matrix(292,0,0,292,1337.5,1834.4)" />
<use xlink:href="#f1_g" transform="matrix(292,0,0,292,1514.3,1834.4)" />
<use xlink:href="#f1_8" transform="matrix(292,0,0,292,3812.5,1834.4)" />
<use xlink:href="#f1_h" transform="matrix(292,0,0,292,4059.1,1834.4)" />
<use xlink:href="#f1_f" transform="matrix(292,0,0,292,4192.3,1834.4)" />
<use xlink:href="#f1_e" transform="matrix(292,0,0,292,4357.3,1834.4)" />
<use xlink:href="#f0_i" transform="matrix(155,0,0,155,1909.6,1759.4)" />
</g>
</g>
<text x="2243" y="1834" dx="0,-0.1,-0.1,0.3" class="s5_1">Love</text>
<text x="655" y="1834" dx="0,-45.8,0.1,0.1,0.1" class="s5_1">Truth</text>
<text x="3812" y="1834" dx="0,-0.1,0.3,-0.1" class="s5_1">Life</text>
<g clip-path="url(#c0_1)">
<g fill="#000000" >
<use xlink:href="#f0_m" transform="matrix(155,0,0,155,1977.2,1759.4)" />
<use xlink:href="#f0_f" transform="matrix(155,0,0,155,3376.3,1759.4)" />
<use xlink:href="#f0_n" transform="matrix(155,0,0,155,3463.8,1759.4)" />
<use xlink:href="#f0_q" transform="matrix(155,0,0,155,3590.9,1759.4)" />
</g>
</g>
<text x="1909" y="1759" class="s6_1">in</text>
<text x="3376" y="1759" dx="0,-0.1,-0.1" class="s6_1">for</text>

<defs>
<path d="M361,548c0,0,278,0,278,218c0,0,0,200,-297,200c0,0,-29,0,-81,-7V555c0,0,95,-7,100,-7ZM111,0V1093c0,0,170,7,205,7c0,0,476,0,476,-318c0,0,0,-368,-421,-368c0,0,-25,0,-110,7V0Z" 
id="f0_8"
transform="scale(0.001,-0.001)" />

<path d="M348,97c0,0,108,0,191,102V392c0,0,-67,15,-94,15c0,0,-108,0,-176,-55c0,0,-68,-56,-68,-131c0,0,0,-124,147,-124ZM292,-14c0,0,-94,0,-163,68c0,0,-69,68,-69,169c0,0,0,122,106,205c0,0,106,84,271,84c0,0,45,0,102,-19c0,0,0,193,-173,193c0,0,-133,0,-205,-71L102,733c0,0,40,33,111,57c0,0,71,24,136,24c0,0,174,0,253,-80c0,0,78,-79,78,-251V197c0,0,0,-105,63,-140V-13c0,0,-86,0,-129,24c0,0,-43,24,-62,81C552,92,467,-14,292,-14Z" 
id="f0_b"
transform="scale(0.001,-0.001)" />

<path d="M111,0V799H253V671c0,0,78,143,231,143c0,0,38,0,110,-14L535,662c0,0,-47,32,-94,32c0,0,-75,0,-131,-69c0,0,-57,-70,-57,-168V0Z" 
id="f0_q"
transform="scale(0.001,-0.001)" />

<path d="M101,0V1126H242V428L549,799H714L458,495L770,0H617L366,400L242,272V0Z" 
id="f0_j"
transform="scale(0.001,-0.001)" />

<path d="M387,-14c0,0,-276,0,-276,240v900H253V250c0,0,0,-64,37,-101c0,0,37,-37,97,-37V-14Z" 
id="f0_k"
transform="scale(0.001,-0.001)" />

<path d="M644,488c0,0,0,86,-53,143c0,0,-59,63,-161,63c0,0,-95,0,-159,-61c0,0,-61,-58,-70,-145ZM422,-14c0,0,-151,0,-256,101C166,87,49,200,49,390c0,0,0,198,120,317c0,0,107,107,254,107c0,0,171,0,268,-97c0,0,94,-92,94,-245c0,0,0,-47,-11,-87H198c0,0,0,-140,77,-215c0,0,68,-65,175,-65c0,0,121,0,202,71L712,73C712,73,679,41,611,17c0,0,-85,-31,-189,-31Z" 
id="f0_e"
transform="scale(0.001,-0.001)" />

<path d="M411,101c0,0,99,0,156,80c0,0,56,81,56,220c0,0,0,297,-212,297c0,0,-97,0,-155,-79c0,0,-58,-79,-58,-218c0,0,0,-300,213,-300Zm0,-115c0,0,-171,0,-267,112c0,0,-95,112,-95,303c0,0,0,185,100,299c0,0,99,114,262,114c0,0,172,0,267,-110c0,0,94,-109,94,-303c0,0,0,-193,-97,-304C675,97,578,-14,411,-14Z" 
id="f0_n"
transform="scale(0.001,-0.001)" />

<path d="M351,-14L9,801H164L375,242L591,801H739L388,-14Z" 
id="f0_u"
transform="scale(0.001,-0.001)" />

<path d="M165,0V680H49V799H165c0,0,0,153,76,240c0,0,75,87,199,87c0,0,62,0,133,-22L533,1000c0,0,-43,15,-80,15c0,0,-65,0,-108,-49c0,0,-42,-50,-42,-125c0,0,0,-20,4,-42H469V680H307V0Z" 
id="f0_f"
transform="scale(0.001,-0.001)" />

<path d="M377,-14c0,0,-95,0,-160,70c0,0,-65,70,-65,178V687H59V799h93V966l141,55V799H512V687H293V290c0,0,0,-100,34,-143c0,0,34,-42,110,-42c0,0,54,0,112,27L570,8c0,0,-88,-22,-193,-22Z" 
id="f0_s"
transform="scale(0.001,-0.001)" />

<path d="M92,-312v127c0,0,89,0,152,42c0,0,64,41,64,101c0,0,0,64,-23,128c0,0,-23,64,-60,158L9,799H154L389,182L600,799H745L406,-134c0,0,-28,-76,-117,-127c0,0,-88,-51,-197,-51Z" 
id="f0_w"
transform="scale(0.001,-0.001)" />

<path d="M286,-14c0,0,-126,0,-237,62L99,182c0,0,118,-77,190,-77c0,0,131,0,131,110c0,0,0,79,-126,136c0,0,-98,44,-132,67c0,0,-34,24,-59,53c0,0,-25,29,-37,63c0,0,-12,33,-12,71c0,0,0,98,71,153c0,0,72,56,188,56c0,0,87,0,220,-56L493,627c0,0,-85,67,-170,67c0,0,-50,0,-85,-24c0,0,-35,-23,-35,-60c0,0,0,-77,88,-116L392,448c0,0,93,-43,136,-97c0,0,42,-55,42,-137c0,0,0,-107,-75,-168c0,0,-76,-60,-209,-60Z" 
id="f0_r"
transform="scale(0.001,-0.001)" />

<path d="M101,0V799h92l47,-93c0,0,82,108,205,108c0,0,172,0,241,-107c0,0,23,45,88,76c0,0,65,31,134,31c0,0,124,0,192,-74c0,0,67,-73,67,-206V0H1026V506c0,0,0,188,-164,188c0,0,-51,0,-96,-31c0,0,-45,-32,-61,-72V0H563V567c0,0,0,59,-44,93c0,0,-45,34,-118,34c0,0,-42,0,-90,-33c0,0,-48,-33,-69,-72V0Z" 
id="f0_l"
transform="scale(0.001,-0.001)" />

<path d="M170,0V680H60V799H311V0Zm77,926c0,0,-36,0,-61,26c0,0,-26,25,-26,62c0,0,0,36,25,62c0,0,26,25,62,25c0,0,37,0,62,-26c0,0,26,-25,26,-61c0,0,0,-37,-26,-62c0,0,-25,-26,-62,-26Z" 
id="f0_i"
transform="scale(0.001,-0.001)" />

<path d="M101,0V799h97L242,696c0,0,71,118,230,118c0,0,262,0,262,-320V0H593V465c0,0,0,127,-39,178c0,0,-38,51,-129,51c0,0,-48,0,-101,-29c0,0,-53,-29,-82,-71V0Z" 
id="f0_m"
transform="scale(0.001,-0.001)" />

<path d="M311,-18c0,0,-145,0,-248,68l54,138c0,0,42,-31,104,-52c0,0,62,-21,112,-21c0,0,87,0,140,48c0,0,53,48,53,122c0,0,0,55,-29,103c0,0,-30,47,-149,103l-88,41c0,0,-112,52,-156,124c0,0,-44,71,-44,172c0,0,0,123,86,203c0,0,87,81,223,81c0,0,181,0,252,-59L577,923c0,0,-30,22,-91,42c0,0,-61,20,-113,20c0,0,-77,0,-120,-44c0,0,-44,-43,-44,-111c0,0,0,-41,16,-76c0,0,16,-34,44,-57c0,0,28,-23,114,-65l90,-43c0,0,111,-53,157,-126c0,0,45,-73,45,-187c0,0,0,-123,-99,-209c0,0,-99,-85,-265,-85Z" 
id="f0_9"
transform="scale(0.001,-0.001)" />

<path d="M468,105c0,0,33,0,80,21c0,0,47,21,59,45V614c0,0,-53,80,-147,80c0,0,-114,0,-184,-85c0,0,-71,-85,-71,-216c0,0,0,-288,263,-288ZM392,-13c0,0,-150,0,-243,107c0,0,-93,107,-93,286c0,0,0,179,107,306c0,0,108,128,256,128c0,0,124,0,188,-59v371H749V1H607V60c0,0,-74,-73,-215,-73Z" 
id="f0_d"
transform="scale(0.001,-0.001)" />

<path d="M376,105c0,0,144,0,207,69c0,0,62,69,62,233c0,0,0,135,-73,211c0,0,-73,76,-196,76c0,0,-26,0,-73,-22c0,0,-46,-22,-61,-40V171c0,0,0,-12,53,-39c0,0,53,-27,81,-27ZM101,-14V1126H242V740c0,0,21,27,76,50c0,0,56,24,109,24c0,0,164,0,266,-114c0,0,102,-113,102,-286c0,0,0,-200,-102,-314C693,100,591,-14,416,-14c0,0,-57,0,-111,21c0,0,-55,21,-84,51L172,-14Z" 
id="f0_c"
transform="scale(0.001,-0.001)" />

<path d="M138,0V1093H287V0Z" 
id="f0_7"
transform="scale(0.001,-0.001)" />

<path d="M118,377V508H438V377Z" 
id="f0_5"
transform="scale(0.001,-0.001)" />

<path d="M383,105c0,0,264,0,264,298c0,0,0,151,-62,221c0,0,-63,70,-201,70c0,0,-30,0,-73,-21c0,0,-43,-21,-69,-47V161c0,0,14,-20,57,-38c0,0,43,-18,84,-18ZM101,-312V799H242V733c0,0,81,81,195,81c0,0,170,0,265,-106c0,0,95,-106,95,-310c0,0,0,-182,-96,-297c0,0,-95,-115,-276,-115c0,0,-50,0,-108,17c0,0,-58,18,-75,41V-312Z" 
id="f0_o"
transform="scale(0.001,-0.001)" />

<path d="M101,0V1126H242V711c0,0,29,44,92,73c0,0,63,30,130,30c0,0,127,0,199,-84c0,0,72,-84,72,-228V0H594V502c0,0,0,89,-45,141c0,0,-44,51,-124,51c0,0,-51,0,-103,-30c0,0,-52,-30,-80,-70V0Z" 
id="f0_h"
transform="scale(0.001,-0.001)" />

<path d="M373,328c0,0,75,0,118,53c0,0,42,53,42,139c0,0,0,75,-46,127c0,0,-46,52,-114,52c0,0,-74,0,-121,-52c0,0,-47,-52,-47,-127c0,0,0,-83,46,-138c0,0,45,-54,122,-54Zm1,-640c0,0,-78,0,-164,28c0,0,-85,27,-138,67l77,113c0,0,124,-83,229,-83c0,0,96,0,151,33c0,0,56,34,56,83c0,0,0,95,-140,95c0,0,-24,0,-87,-11C358,13,295,1,260,1C260,1,90,1,90,129c0,0,0,40,40,72c0,0,40,32,98,46c0,0,-168,79,-168,274c0,0,0,126,87,209c0,0,87,84,216,84c0,0,117,0,184,-49l71,85l92,-87L625,699c0,0,55,-71,55,-185c0,0,0,-121,-76,-203c0,0,-75,-82,-197,-94L290,205c0,0,-21,-2,-56,-16c0,0,-36,-14,-36,-36c0,0,0,-31,74,-31c0,0,32,0,100,12c0,0,68,12,101,12c0,0,118,0,184,-57c0,0,66,-56,66,-155c0,0,0,-110,-99,-178c0,0,-99,-68,-250,-68Z" 
id="f0_g"
transform="scale(0.001,-0.001)" />

<path d="M547,-18c0,0,-226,0,-356,153C191,135,60,288,60,542c0,0,0,254,143,412c0,0,144,158,388,158c0,0,171,0,278,-95L807,894c0,0,-112,84,-221,84c0,0,-171,0,-271,-121c0,0,-99,-121,-99,-321c0,0,0,-189,97,-305c0,0,98,-116,265,-116c0,0,120,0,193,72V443H620V570H921V94C921,94,861,43,755,12c0,0,-107,-30,-208,-30Z" 
id="f0_6"
transform="scale(0.001,-0.001)" />

<path d="M198,672l-50,66l56,48c0,0,41,35,41,86c0,0,0,30,-36,71c0,0,-37,40,-37,74c0,0,0,109,108,109c0,0,116,0,116,-132c0,0,0,-198,-198,-322Z" 
id="f0_x"
transform="scale(0.001,-0.001)" />

<path d="M355,-14L11,1093H166L385,330l240,763h52L915,331l222,762h156L952,-14H905L645,739L402,-14Z" 
id="f0_a"
transform="scale(0.001,-0.001)" />

<path d="M296,-14L11,801H162L333,277L546,801h37L802,277L985,801h139L839,-14H802L568,529L333,-14Z" 
id="f0_v"
transform="scale(0.001,-0.001)" />

<path d="M167,-270l-38,54c0,0,128,105,128,179c0,0,0,33,-22,64c0,0,-64,31,-64,88c0,0,0,40,30,66c0,0,31,25,77,25c0,0,41,0,74,-35c0,0,32,-36,32,-84c0,0,0,-98,-41,-178c0,0,-42,-79,-176,-179Z" 
id="f0_4"
transform="scale(0.001,-0.001)" />

<path d="M483,112c0,0,101,0,152,37c0,0,-8,34,-8,86V537H326c0,0,-71,-91,-71,-191c0,0,0,-234,228,-234ZM432,-14c0,0,-156,0,-241,92c0,0,-85,92,-85,261c0,0,0,86,25,150c0,0,26,63,95,131c0,0,-106,105,-106,217c0,0,0,114,86,195c0,0,87,81,231,81c0,0,154,0,238,-68L613,931c0,0,-85,70,-152,70c0,0,-199,0,-199,-179c0,0,0,-97,87,-164H627V794l142,55V656H954V537H769V290c0,0,0,-103,27,-140c0,0,28,-38,95,-38c0,0,40,0,95,28L1006,8c0,0,-78,-22,-179,-22c0,0,-69,0,-134,52c0,0,-108,-52,-261,-52Z" 
id="f0_3"
transform="scale(0.001,-0.001)" />

<path d="M454,105c0,0,102,0,159,52V633c0,0,-61,61,-153,61c0,0,-120,0,-187,-81c0,0,-68,-81,-68,-215c0,0,0,-139,68,-216c0,0,67,-77,181,-77ZM613,-312V47c0,0,-62,-61,-208,-61c0,0,-163,0,-256,109c0,0,-93,109,-93,303c0,0,0,191,106,303c0,0,107,113,274,113c0,0,104,0,195,-76l38,61h86V-312Z" 
id="f0_p"
transform="scale(0.001,-0.001)" />

<path d="M364,-14c0,0,-132,0,-201,75c0,0,-70,75,-70,214V799H235V290c0,0,0,-185,160,-185c0,0,70,0,128,40c0,0,59,40,77,93V799H742V0H600V110c0,0,-24,-47,-96,-86c0,0,-72,-38,-140,-38Z" 
id="f0_t"
transform="scale(0.001,-0.001)" />

<path d="M542,-18c0,0,-229,0,-356,150C186,132,60,283,60,543c0,0,0,243,140,406c0,0,141,163,360,163c0,0,188,0,300,-77L781,874c0,0,-65,66,-209,66c0,0,-136,0,-224,-115c0,0,-87,-115,-87,-290c0,0,0,-175,81,-278c0,0,81,-103,216,-103c0,0,154,0,242,110L890,108C890,108,771,-18,542,-18Z" 
id="f1_4"
transform="scale(0.001,-0.001)" />

<path d="M111,0V1093H305V665H740v428H932V0H740V493H305V0Z" 
id="f1_6"
transform="scale(0.001,-0.001)" />

<path d="M395,617c0,0,121,0,177,34c0,0,57,34,57,133c0,0,0,81,-61,113c0,0,-60,32,-190,32c0,0,-31,0,-65,-5V621c0,0,53,-4,82,-4ZM111,0V1093c0,0,17,0,126,5c0,0,110,6,177,6c0,0,416,0,416,-322c0,0,0,-97,-57,-177c0,0,-58,-79,-145,-112L951,0H727L436,452c0,0,-44,0,-123,5V0Z" 
id="f1_b"
transform="scale(0.001,-0.001)" />

<path d="M115,0V1093H309V0Z" 
id="f1_7"
transform="scale(0.001,-0.001)" />

<path d="M335,-18c0,0,-152,0,-275,79l71,174c0,0,115,-81,226,-81c0,0,170,0,170,119c0,0,0,56,-40,107c0,0,-40,50,-166,113c0,0,-125,63,-169,104c0,0,-43,41,-67,97c0,0,-23,56,-23,124c0,0,0,127,92,210c0,0,93,84,239,84c0,0,189,0,278,-71L612,874c0,0,-102,73,-216,73c0,0,-67,0,-104,-36c0,0,-37,-35,-37,-92c0,0,0,-94,208,-196c0,0,110,-53,158,-98c0,0,49,-45,74,-105c0,0,26,-60,26,-134c0,0,0,-133,-105,-219c0,0,-105,-85,-281,-85Z" 
id="f1_c"
transform="scale(0.001,-0.001)" />

<path d="M363,0V921H15v172H920V921H556V0Z" 
id="f1_d"
transform="scale(0.001,-0.001)" />

<path d="M613,371L482,773L350,371ZM3,0L439,1108h85L963,0H749L669,222H294L218,0Z" 
id="f1_3"
transform="scale(0.001,-0.001)" />

<path d="M829,-14L298,677V0H111V1093h93L722,434v659H908V-14Z" 
id="f1_a"
transform="scale(0.001,-0.001)" />

<path d="M540,-14L320,589L201,0H15L235,1093H337L574,357l232,736H908L1131,0H944L830,589L609,-14Z" 
id="f1_9"
transform="scale(0.001,-0.001)" />

<path d="M111,0V1093H802V921H305V665H659V500H305V172H802V0Z" 
id="f1_5"
transform="scale(0.001,-0.001)" />

<path d="M111,0V1093H305V172H799V0Z" 
id="f1_8"
transform="scale(0.001,-0.001)" />

<path d="M433,138c0,0,87,0,139,68c0,0,51,69,51,195c0,0,0,260,-190,260c0,0,-87,0,-139,-68c0,0,-52,-69,-52,-192c0,0,0,-263,191,-263Zm0,-152c0,0,-182,0,-283,113C150,99,49,213,49,401c0,0,0,183,105,298c0,0,106,115,279,115c0,0,182,0,283,-111c0,0,100,-110,100,-302c0,0,0,-191,-102,-303C714,98,611,-14,433,-14Z" 
id="f1_i"
transform="scale(0.001,-0.001)" />

<path d="M365,-14L4,799H208L399,311L604,799H802L432,-14Z" 
id="f1_m"
transform="scale(0.001,-0.001)" />

<path d="M641,482c0,0,-19,176,-193,176c0,0,-159,0,-198,-176ZM444,-14c0,0,-183,0,-289,106C155,92,49,199,49,391c0,0,0,188,117,305c0,0,116,118,279,118c0,0,174,0,279,-104c0,0,105,-104,105,-264c0,0,0,-34,-16,-104H242c0,0,6,-95,66,-148c0,0,61,-53,163,-53c0,0,127,0,194,67L737,66c0,0,-98,-80,-293,-80Z" 
id="f1_e"
transform="scale(0.001,-0.001)" />

<path d="M101,0V799H287V726c0,0,79,88,208,88c0,0,96,0,146,-30L562,625c0,0,-49,33,-109,33c0,0,-65,0,-115,-59c0,0,-51,-59,-51,-144V0Z" 
id="f1_j"
transform="scale(0.001,-0.001)" />

<path d="M379,-14c0,0,-278,0,-278,295V799H287V294c0,0,0,-153,138,-153c0,0,63,0,118,33c0,0,54,32,72,76V799H802V0H615V67C615,67,576,34,506,9c0,0,-69,-23,-127,-23Z" 
id="f1_l"
transform="scale(0.001,-0.001)" />

<path d="M376,-14c0,0,-119,0,-183,67c0,0,-64,67,-64,192V649H36V799h93V962l187,69V799H535V649H316V299c0,0,0,-85,27,-121c0,0,26,-35,93,-35c0,0,67,0,125,36V8c0,0,-65,-22,-185,-22Z" 
id="f1_k"
transform="scale(0.001,-0.001)" />

<path d="M101,0V1096l189,45V748c0,0,73,66,199,66c0,0,150,0,233,-84c0,0,83,-83,83,-238V0H618V492c0,0,0,74,-46,118c0,0,-47,45,-121,45c0,0,-46,0,-93,-25c0,0,-47,-25,-68,-57V0Z" 
id="f1_g"
transform="scale(0.001,-0.001)" />

<path d="M151,0V646H48V799H339V0Zm96,892c0,0,-45,0,-76,31c0,0,-32,32,-32,77c0,0,0,44,32,76c0,0,31,32,76,32c0,0,45,0,76,-32c0,0,32,-32,32,-76c0,0,0,-45,-32,-77c0,0,-31,-31,-76,-31Z" 
id="f1_h"
transform="scale(0.001,-0.001)" />

<path d="M143,0V646H26V799H143c0,0,6,147,87,237c0,0,81,90,209,90c0,0,67,0,162,-29L546,956c0,0,-61,20,-94,20c0,0,-53,0,-90,-46c0,0,-36,-45,-36,-112c0,0,0,-9,1,-19H492V646H330V0Z" 
id="f1_f"
transform="scale(0.001,-0.001)" />


</defs>

<!-- Any embedded fonts defined here -->
<style type="text/css" ><![CDATA[

@font-face {
	font-family: TrebuchetMS_8;
	src: url("fonts/TrebuchetMS_8.woff") format("woff");
}

@font-face {
	font-family: TrebuchetMS-Bold_9;
	src: url("fonts/TrebuchetMS-Bold_9.woff") format("woff");
}

]]></style>

</svg>
